<?xml version="1.0" standalone="no"?>
 <!DOCTYPE svg PUBLIC "-//W3C//DTD SVG 1.1//EN" 
 "http://www.w3.org/Graphics/SVG/1.1/DTD/svg11.dtd"> 
<svg
  xmlns:svg="http://www.w3.org/2000/svg"
  xmlns="http://www.w3.org/2000/svg"
  xmlns:xlink="http://www.w3.org/1999/xlink"
  xmlns:inkscape="http://www.inkscape.org/namespaces/inkscape"
  version="1.1"
  width="1200" height="721" viewBox="273.7 216.1 56.4 33.9">
<title>SVG Image created as U10.svg date 2026-09-25T15:51:06 </title>
  <desc>Image generated by Eeschema-SVG </desc>
<g style="fill:#D9C8B2; fill-opacity:1.0000;stroke:#D9C8B2; stroke-opacity:1.0000;
stroke-linecap:round; stroke-linejoin:round;"
 transform="translate(0 0) scale(1 1)">
<path style="fill:none; 
stroke:#D9C8B2; stroke-width:0.5080; stroke-opacity:1; 
stroke-linecap:round; stroke-linejoin:round;fill:none"
d="M 322.0720,233.1720
318.0080,233.1720
" /> 
<path style="fill:none; 
stroke:#D9C8B2; stroke-width:0.5080; stroke-opacity:1; 
stroke-linecap:round; stroke-linejoin:round;fill:none"
d="M 322.0720,231.6480
318.0080,231.6480
" /> 
</g>
<g style="fill:none; 
stroke:#D9C8B2; stroke-width:0.1524; stroke-opacity:1; 
stroke-linecap:round; stroke-linejoin:round;">
<path d="M320.0400 233.4260
L320.0400 236.2200
" />
<path d="M320.0400 231.3940
L320.0400 228.6000
" />
</g>
<g style="fill:none; 
stroke:#B9CCC8; stroke-width:0.1524; stroke-opacity:1; 
stroke-linecap:round; stroke-linejoin:round;">
<text x="323.4183" y="231.0129"
textLength="3.8922" font-size="1.6933" lengthAdjust="spacingAndGlyphs"
text-anchor="middle" opacity="0" stroke-opacity="0">C26</text>
<g class="stroked-text"><desc>C26</desc>
<path d="M322.6018 230.8365
L322.5414 230.8970
" />
<path d="M322.5414 230.8970
L322.3599 230.9574
" />
<path d="M322.3599 230.9574
L322.2390 230.9574
" />
<path d="M322.2390 230.9574
L322.0576 230.8970
" />
<path d="M322.0576 230.8970
L321.9366 230.7760
" />
<path d="M321.9366 230.7760
L321.8761 230.6550
" />
<path d="M321.8761 230.6550
L321.8157 230.4131
" />
<path d="M321.8157 230.4131
L321.8157 230.2317
" />
<path d="M321.8157 230.2317
L321.8761 229.9898
" />
<path d="M321.8761 229.9898
L321.9366 229.8689
" />
<path d="M321.9366 229.8689
L322.0576 229.7479
" />
<path d="M322.0576 229.7479
L322.2390 229.6874
" />
<path d="M322.2390 229.6874
L322.3599 229.6874
" />
<path d="M322.3599 229.6874
L322.5414 229.7479
" />
<path d="M322.5414 229.7479
L322.6018 229.8084
" />
<path d="M323.0857 229.8084
L323.1461 229.7479
" />
<path d="M323.1461 229.7479
L323.2671 229.6874
" />
<path d="M323.2671 229.6874
L323.5695 229.6874
" />
<path d="M323.5695 229.6874
L323.6904 229.7479
" />
<path d="M323.6904 229.7479
L323.7509 229.8084
" />
<path d="M323.7509 229.8084
L323.8114 229.9293
" />
<path d="M323.8114 229.9293
L323.8114 230.0503
" />
<path d="M323.8114 230.0503
L323.7509 230.2317
" />
<path d="M323.7509 230.2317
L323.0252 230.9574
" />
<path d="M323.0252 230.9574
L323.8114 230.9574
" />
<path d="M324.8999 229.6874
L324.6580 229.6874
" />
<path d="M324.6580 229.6874
L324.5371 229.7479
" />
<path d="M324.5371 229.7479
L324.4766 229.8084
" />
<path d="M324.4766 229.8084
L324.3556 229.9898
" />
<path d="M324.3556 229.9898
L324.2952 230.2317
" />
<path d="M324.2952 230.2317
L324.2952 230.7155
" />
<path d="M324.2952 230.7155
L324.3556 230.8365
" />
<path d="M324.3556 230.8365
L324.4161 230.8970
" />
<path d="M324.4161 230.8970
L324.5371 230.9574
" />
<path d="M324.5371 230.9574
L324.7790 230.9574
" />
<path d="M324.7790 230.9574
L324.8999 230.8970
" />
<path d="M324.8999 230.8970
L324.9604 230.8365
" />
<path d="M324.9604 230.8365
L325.0209 230.7155
" />
<path d="M325.0209 230.7155
L325.0209 230.4131
" />
<path d="M325.0209 230.4131
L324.9604 230.2922
" />
<path d="M324.9604 230.2922
L324.8999 230.2317
" />
<path d="M324.8999 230.2317
L324.7790 230.1712
" />
<path d="M324.7790 230.1712
L324.5371 230.1712
" />
<path d="M324.5371 230.1712
L324.4161 230.2317
" />
<path d="M324.4161 230.2317
L324.3556 230.2922
" />
<path d="M324.3556 230.2922
L324.2952 230.4131
" />
</g><text x="324.1561" y="229.2349"
textLength="5.4646" font-size="1.6933" lengthAdjust="spacingAndGlyphs"
text-anchor="middle" opacity="0" stroke-opacity="0">0.1uF</text>
<g class="stroked-text"><desc>0.1uF</desc>
<path d="M322.0696 227.9094
L322.1906 227.9094
" />
<path d="M322.1906 227.9094
L322.3115 227.9699
" />
<path d="M322.3115 227.9699
L322.3720 228.0304
" />
<path d="M322.3720 228.0304
L322.4325 228.1513
" />
<path d="M322.4325 228.1513
L322.4930 228.3932
" />
<path d="M322.4930 228.3932
L322.4930 228.6956
" />
<path d="M322.4930 228.6956
L322.4325 228.9375
" />
<path d="M322.4325 228.9375
L322.3720 229.0585
" />
<path d="M322.3720 229.0585
L322.3115 229.1190
" />
<path d="M322.3115 229.1190
L322.1906 229.1794
" />
<path d="M322.1906 229.1794
L322.0696 229.1794
" />
<path d="M322.0696 229.1794
L321.9487 229.1190
" />
<path d="M321.9487 229.1190
L321.8882 229.0585
" />
<path d="M321.8882 229.0585
L321.8277 228.9375
" />
<path d="M321.8277 228.9375
L321.7673 228.6956
" />
<path d="M321.7673 228.6956
L321.7673 228.3932
" />
<path d="M321.7673 228.3932
L321.8277 228.1513
" />
<path d="M321.8277 228.1513
L321.8882 228.0304
" />
<path d="M321.8882 228.0304
L321.9487 227.9699
" />
<path d="M321.9487 227.9699
L322.0696 227.9094
" />
<path d="M323.0372 229.0585
L323.0977 229.1190
" />
<path d="M323.0977 229.1190
L323.0372 229.1794
" />
<path d="M323.0372 229.1794
L322.9768 229.1190
" />
<path d="M322.9768 229.1190
L323.0372 229.0585
" />
<path d="M323.0372 229.0585
L323.0372 229.1794
" />
<path d="M324.3073 229.1794
L323.5816 229.1794
" />
<path d="M323.9444 229.1794
L323.9444 227.9094
" />
<path d="M323.9444 227.9094
L323.8235 228.0909
" />
<path d="M323.8235 228.0909
L323.7025 228.2118
" />
<path d="M323.7025 228.2118
L323.5816 228.2723
" />
<path d="M325.3958 228.3328
L325.3958 229.1794
" />
<path d="M324.8515 228.3328
L324.8515 228.9980
" />
<path d="M324.8515 228.9980
L324.9120 229.1190
" />
<path d="M324.9120 229.1190
L325.0330 229.1794
" />
<path d="M325.0330 229.1794
L325.2144 229.1794
" />
<path d="M325.2144 229.1794
L325.3353 229.1190
" />
<path d="M325.3353 229.1190
L325.3958 229.0585
" />
<path d="M326.4239 228.5142
L326.0005 228.5142
" />
<path d="M326.0005 229.1794
L326.0005 227.9094
" />
<path d="M326.0005 227.9094
L326.6053 227.9094
" />
</g></g>
<g style="fill:#232323; fill-opacity:1.0000; stroke:none;">
<rect x="288.290000" y="229.870000" width="12.700000" height="13.970000" rx="0.000000" />
</g>
<g style="fill:none; 
stroke:#D9C8B2; stroke-width:0.4100; stroke-opacity:1; 
stroke-linecap:round; stroke-linejoin:round;">
<rect x="288.290000" y="229.870000" width="12.700000" height="13.970000" rx="0.000000" />
</g>
<g style="fill:none; 
stroke:#D9C8B2; stroke-width:0.1524; stroke-opacity:1; 
stroke-linecap:round; stroke-linejoin:round;">
<path d="M300.9900 232.4100
L306.0700 232.4100
" />
</g>
<g style="fill:none; 
stroke:#B9CCC8; stroke-width:0.1524; stroke-opacity:1; 
stroke-linecap:round; stroke-linejoin:round;">
<text x="299.9740" y="232.9180"
textLength="3.0601" font-size="1.3546" lengthAdjust="spacingAndGlyphs"
text-anchor="end" opacity="0" stroke-opacity="0">CTG</text>
<g class="stroked-text"><desc>CTG</desc>
<path d="M297.8901 232.7753
L297.8417 232.8237
" />
<path d="M297.8417 232.8237
L297.6966 232.8720
" />
<path d="M297.6966 232.8720
L297.5998 232.8720
" />
<path d="M297.5998 232.8720
L297.4547 232.8237
" />
<path d="M297.4547 232.8237
L297.3579 232.7269
" />
<path d="M297.3579 232.7269
L297.3096 232.6301
" />
<path d="M297.3096 232.6301
L297.2612 232.4366
" />
<path d="M297.2612 232.4366
L297.2612 232.2915
" />
<path d="M297.2612 232.2915
L297.3096 232.0979
" />
<path d="M297.3096 232.0979
L297.3579 232.0012
" />
<path d="M297.3579 232.0012
L297.4547 231.9044
" />
<path d="M297.4547 231.9044
L297.5998 231.8560
" />
<path d="M297.5998 231.8560
L297.6966 231.8560
" />
<path d="M297.6966 231.8560
L297.8417 231.9044
" />
<path d="M297.8417 231.9044
L297.8901 231.9528
" />
<path d="M298.1804 231.8560
L298.7610 231.8560
" />
<path d="M298.4707 232.8720
L298.4707 231.8560
" />
<path d="M299.6318 231.9044
L299.5351 231.8560
" />
<path d="M299.5351 231.8560
L299.3899 231.8560
" />
<path d="M299.3899 231.8560
L299.2448 231.9044
" />
<path d="M299.2448 231.9044
L299.1480 232.0012
" />
<path d="M299.1480 232.0012
L299.0997 232.0979
" />
<path d="M299.0997 232.0979
L299.0513 232.2915
" />
<path d="M299.0513 232.2915
L299.0513 232.4366
" />
<path d="M299.0513 232.4366
L299.0997 232.6301
" />
<path d="M299.0997 232.6301
L299.1480 232.7269
" />
<path d="M299.1480 232.7269
L299.2448 232.8237
" />
<path d="M299.2448 232.8237
L299.3899 232.8720
" />
<path d="M299.3899 232.8720
L299.4867 232.8720
" />
<path d="M299.4867 232.8720
L299.6318 232.8237
" />
<path d="M299.6318 232.8237
L299.6802 232.7753
" />
<path d="M299.6802 232.7753
L299.6802 232.4366
" />
<path d="M299.6802 232.4366
L299.4867 232.4366
" />
</g></g>
<g style="fill:none; 
stroke:#BE9F88; stroke-width:0.1524; stroke-opacity:1; 
stroke-linecap:round; stroke-linejoin:round;">
<text x="303.5300" y="232.0544"
textLength="1.2216" font-size="1.3546" lengthAdjust="spacingAndGlyphs"
text-anchor="middle" opacity="0" stroke-opacity="0">1</text>
<g class="stroked-text"><desc>1</desc>
<path d="M303.8202 231.9220
L303.2397 231.9220
" />
<path d="M303.5300 231.9220
L303.5300 230.9060
" />
<path d="M303.5300 230.9060
L303.4332 231.0512
" />
<path d="M303.4332 231.0512
L303.3364 231.1479
" />
<path d="M303.3364 231.1479
L303.2397 231.1963
" />
</g></g>
<g style="fill:none; 
stroke:#D9C8B2; stroke-width:0.1524; stroke-opacity:1; 
stroke-linecap:round; stroke-linejoin:round;">
<path d="M300.9900 234.9500
L306.0700 234.9500
" />
</g>
<g style="fill:none; 
stroke:#B9CCC8; stroke-width:0.1524; stroke-opacity:1; 
stroke-linecap:round; stroke-linejoin:round;">
<text x="299.9740" y="235.4580"
textLength="3.8342" font-size="1.3546" lengthAdjust="spacingAndGlyphs"
text-anchor="end" opacity="0" stroke-opacity="0">CELL</text>
<g class="stroked-text"><desc>CELL</desc>
<path d="M297.1160 235.3153
L297.0676 235.3637
" />
<path d="M297.0676 235.3637
L296.9225 235.4120
" />
<path d="M296.9225 235.4120
L296.8257 235.4120
" />
<path d="M296.8257 235.4120
L296.6806 235.3637
" />
<path d="M296.6806 235.3637
L296.5838 235.2669
" />
<path d="M296.5838 235.2669
L296.5355 235.1701
" />
<path d="M296.5355 235.1701
L296.4871 234.9766
" />
<path d="M296.4871 234.9766
L296.4871 234.8315
" />
<path d="M296.4871 234.8315
L296.5355 234.6379
" />
<path d="M296.5355 234.6379
L296.5838 234.5412
" />
<path d="M296.5838 234.5412
L296.6806 234.4444
" />
<path d="M296.6806 234.4444
L296.8257 234.3960
" />
<path d="M296.8257 234.3960
L296.9225 234.3960
" />
<path d="M296.9225 234.3960
L297.0676 234.4444
" />
<path d="M297.0676 234.4444
L297.1160 234.4928
" />
<path d="M297.5515 234.8798
L297.8901 234.8798
" />
<path d="M298.0353 235.4120
L297.5515 235.4120
" />
<path d="M297.5515 235.4120
L297.5515 234.3960
" />
<path d="M297.5515 234.3960
L298.0353 234.3960
" />
<path d="M298.9545 235.4120
L298.4707 235.4120
" />
<path d="M298.4707 235.4120
L298.4707 234.3960
" />
<path d="M299.7770 235.4120
L299.2932 235.4120
" />
<path d="M299.2932 235.4120
L299.2932 234.3960
" />
</g></g>
<g style="fill:none; 
stroke:#BE9F88; stroke-width:0.1524; stroke-opacity:1; 
stroke-linecap:round; stroke-linejoin:round;">
<text x="303.5300" y="234.5944"
textLength="1.2216" font-size="1.3546" lengthAdjust="spacingAndGlyphs"
text-anchor="middle" opacity="0" stroke-opacity="0">2</text>
<g class="stroked-text"><desc>2</desc>
<path d="M303.2397 233.5428
L303.2881 233.4944
" />
<path d="M303.2881 233.4944
L303.3848 233.4460
" />
<path d="M303.3848 233.4460
L303.6267 233.4460
" />
<path d="M303.6267 233.4460
L303.7235 233.4944
" />
<path d="M303.7235 233.4944
L303.7719 233.5428
" />
<path d="M303.7719 233.5428
L303.8202 233.6396
" />
<path d="M303.8202 233.6396
L303.8202 233.7363
" />
<path d="M303.8202 233.7363
L303.7719 233.8815
" />
<path d="M303.7719 233.8815
L303.1913 234.4620
" />
<path d="M303.1913 234.4620
L303.8202 234.4620
" />
</g></g>
<g style="fill:none; 
stroke:#D9C8B2; stroke-width:0.1524; stroke-opacity:1; 
stroke-linecap:round; stroke-linejoin:round;">
<path d="M300.9900 237.4900
L306.0700 237.4900
" />
</g>
<g style="fill:none; 
stroke:#B9CCC8; stroke-width:0.1524; stroke-opacity:1; 
stroke-linecap:round; stroke-linejoin:round;">
<text x="299.9740" y="237.9980"
textLength="3.1569" font-size="1.3546" lengthAdjust="spacingAndGlyphs"
text-anchor="end" opacity="0" stroke-opacity="0">VDD</text>
<g class="stroked-text"><desc>VDD</desc>
<path d="M297.0676 236.9360
L297.4063 237.9520
" />
<path d="M297.4063 237.9520
L297.7449 236.9360
" />
<path d="M298.0837 237.9520
L298.0837 236.9360
" />
<path d="M298.0837 236.9360
L298.3256 236.9360
" />
<path d="M298.3256 236.9360
L298.4707 236.9844
" />
<path d="M298.4707 236.9844
L298.5675 237.0812
" />
<path d="M298.5675 237.0812
L298.6158 237.1779
" />
<path d="M298.6158 237.1779
L298.6642 237.3715
" />
<path d="M298.6642 237.3715
L298.6642 237.5166
" />
<path d="M298.6642 237.5166
L298.6158 237.7101
" />
<path d="M298.6158 237.7101
L298.5675 237.8069
" />
<path d="M298.5675 237.8069
L298.4707 237.9037
" />
<path d="M298.4707 237.9037
L298.3256 237.9520
" />
<path d="M298.3256 237.9520
L298.0837 237.9520
" />
<path d="M299.0997 237.9520
L299.0997 236.9360
" />
<path d="M299.0997 236.9360
L299.3416 236.9360
" />
<path d="M299.3416 236.9360
L299.4867 236.9844
" />
<path d="M299.4867 236.9844
L299.5835 237.0812
" />
<path d="M299.5835 237.0812
L299.6318 237.1779
" />
<path d="M299.6318 237.1779
L299.6802 237.3715
" />
<path d="M299.6802 237.3715
L299.6802 237.5166
" />
<path d="M299.6802 237.5166
L299.6318 237.7101
" />
<path d="M299.6318 237.7101
L299.5835 237.8069
" />
<path d="M299.5835 237.8069
L299.4867 237.9037
" />
<path d="M299.4867 237.9037
L299.3416 237.9520
" />
<path d="M299.3416 237.9520
L299.0997 237.9520
" />
</g></g>
<g style="fill:none; 
stroke:#BE9F88; stroke-width:0.1524; stroke-opacity:1; 
stroke-linecap:round; stroke-linejoin:round;">
<text x="303.5300" y="237.1344"
textLength="1.2216" font-size="1.3546" lengthAdjust="spacingAndGlyphs"
text-anchor="middle" opacity="0" stroke-opacity="0">3</text>
<g class="stroked-text"><desc>3</desc>
<path d="M303.1913 235.9860
L303.8202 235.9860
" />
<path d="M303.8202 235.9860
L303.4816 236.3731
" />
<path d="M303.4816 236.3731
L303.6267 236.3731
" />
<path d="M303.6267 236.3731
L303.7235 236.4215
" />
<path d="M303.7235 236.4215
L303.7719 236.4698
" />
<path d="M303.7719 236.4698
L303.8202 236.5666
" />
<path d="M303.8202 236.5666
L303.8202 236.8085
" />
<path d="M303.8202 236.8085
L303.7719 236.9053
" />
<path d="M303.7719 236.9053
L303.7235 236.9537
" />
<path d="M303.7235 236.9537
L303.6267 237.0020
" />
<path d="M303.6267 237.0020
L303.3364 237.0020
" />
<path d="M303.3364 237.0020
L303.2397 236.9537
" />
<path d="M303.2397 236.9537
L303.1913 236.9053
" />
</g></g>
<g style="fill:none; 
stroke:#D9C8B2; stroke-width:0.1524; stroke-opacity:1; 
stroke-linecap:round; stroke-linejoin:round;">
<path d="M288.2900 240.0300
L283.2100 240.0300
" />
</g>
<g style="fill:none; 
stroke:#B9CCC8; stroke-width:0.1524; stroke-opacity:1; 
stroke-linecap:round; stroke-linejoin:round;">
<text x="289.3060" y="240.5380"
textLength="3.3504" font-size="1.3546" lengthAdjust="spacingAndGlyphs"
text-anchor="start" opacity="0" stroke-opacity="0">GND</text>
<g class="stroked-text"><desc>GND</desc>
<path d="M290.1802 239.5244
L290.0835 239.4760
" />
<path d="M290.0835 239.4760
L289.9383 239.4760
" />
<path d="M289.9383 239.4760
L289.7932 239.5244
" />
<path d="M289.7932 239.5244
L289.6964 239.6212
" />
<path d="M289.6964 239.6212
L289.6481 239.7179
" />
<path d="M289.6481 239.7179
L289.5997 239.9115
" />
<path d="M289.5997 239.9115
L289.5997 240.0566
" />
<path d="M289.5997 240.0566
L289.6481 240.2501
" />
<path d="M289.6481 240.2501
L289.6964 240.3469
" />
<path d="M289.6964 240.3469
L289.7932 240.4437
" />
<path d="M289.7932 240.4437
L289.9383 240.4920
" />
<path d="M289.9383 240.4920
L290.0351 240.4920
" />
<path d="M290.0351 240.4920
L290.1802 240.4437
" />
<path d="M290.1802 240.4437
L290.2286 240.3953
" />
<path d="M290.2286 240.3953
L290.2286 240.0566
" />
<path d="M290.2286 240.0566
L290.0351 240.0566
" />
<path d="M290.6641 240.4920
L290.6641 239.4760
" />
<path d="M290.6641 239.4760
L291.2446 240.4920
" />
<path d="M291.2446 240.4920
L291.2446 239.4760
" />
<path d="M291.7285 240.4920
L291.7285 239.4760
" />
<path d="M291.7285 239.4760
L291.9704 239.4760
" />
<path d="M291.9704 239.4760
L292.1155 239.5244
" />
<path d="M292.1155 239.5244
L292.2123 239.6212
" />
<path d="M292.2123 239.6212
L292.2606 239.7179
" />
<path d="M292.2606 239.7179
L292.3090 239.9115
" />
<path d="M292.3090 239.9115
L292.3090 240.0566
" />
<path d="M292.3090 240.0566
L292.2606 240.2501
" />
<path d="M292.2606 240.2501
L292.2123 240.3469
" />
<path d="M292.2123 240.3469
L292.1155 240.4437
" />
<path d="M292.1155 240.4437
L291.9704 240.4920
" />
<path d="M291.9704 240.4920
L291.7285 240.4920
" />
</g></g>
<g style="fill:none; 
stroke:#BE9F88; stroke-width:0.1524; stroke-opacity:1; 
stroke-linecap:round; stroke-linejoin:round;">
<text x="285.7500" y="239.6744"
textLength="1.2216" font-size="1.3546" lengthAdjust="spacingAndGlyphs"
text-anchor="middle" opacity="0" stroke-opacity="0">4</text>
<g class="stroked-text"><desc>4</desc>
<path d="M285.9435 238.8647
L285.9435 239.5420
" />
<path d="M285.7016 238.4777
L285.4597 239.2034
" />
<path d="M285.4597 239.2034
L286.0886 239.2034
" />
</g></g>
<g style="fill:none; 
stroke:#D9C8B2; stroke-width:0.1524; stroke-opacity:1; 
stroke-linecap:round; stroke-linejoin:round;">
<path d="M300.9900 242.5700
L306.0700 242.5700
" />
</g>
<g style="fill:none; 
stroke:#B9CCC8; stroke-width:0.1524; stroke-opacity:1; 
stroke-linecap:round; stroke-linejoin:round;">
<text x="299.9740" y="243.0780"
textLength="4.6567" font-size="1.3546" lengthAdjust="spacingAndGlyphs"
text-anchor="end" opacity="0" stroke-opacity="0">~{ALERT}</text>
<g class="stroked-text"><desc>~{ALERT}</desc>
<path d="M295.6646 242.7417
L296.1484 242.7417
" />
<path d="M295.5678 243.0320
L295.9065 242.0160
" />
<path d="M295.9065 242.0160
L296.2451 243.0320
" />
<path d="M297.0677 243.0320
L296.5839 243.0320
" />
<path d="M296.5839 243.0320
L296.5839 242.0160
" />
<path d="M297.4064 242.4998
L297.7450 242.4998
" />
<path d="M297.8902 243.0320
L297.4064 243.0320
" />
<path d="M297.4064 243.0320
L297.4064 242.0160
" />
<path d="M297.4064 242.0160
L297.8902 242.0160
" />
<path d="M298.9061 243.0320
L298.5675 242.5482
" />
<path d="M298.3256 243.0320
L298.3256 242.0160
" />
<path d="M298.3256 242.0160
L298.7126 242.0160
" />
<path d="M298.7126 242.0160
L298.8094 242.0644
" />
<path d="M298.8094 242.0644
L298.8577 242.1128
" />
<path d="M298.8577 242.1128
L298.9061 242.2096
" />
<path d="M298.9061 242.2096
L298.9061 242.3547
" />
<path d="M298.9061 242.3547
L298.8577 242.4515
" />
<path d="M298.8577 242.4515
L298.8094 242.4998
" />
<path d="M298.8094 242.4998
L298.7126 242.5482
" />
<path d="M298.7126 242.5482
L298.3256 242.5482
" />
<path d="M299.1964 242.0160
L299.7770 242.0160
" />
<path d="M299.4867 243.0320
L299.4867 242.0160
" />
<path d="M295.5727 241.7340
L299.7722 241.7340
" />
</g></g>
<g style="fill:none; 
stroke:#BE9F88; stroke-width:0.1524; stroke-opacity:1; 
stroke-linecap:round; stroke-linejoin:round;">
<text x="303.5300" y="242.2144"
textLength="1.2216" font-size="1.3546" lengthAdjust="spacingAndGlyphs"
text-anchor="middle" opacity="0" stroke-opacity="0">5</text>
<g class="stroked-text"><desc>5</desc>
<path d="M303.7719 241.0660
L303.2881 241.0660
" />
<path d="M303.2881 241.0660
L303.2397 241.5498
" />
<path d="M303.2397 241.5498
L303.2881 241.5015
" />
<path d="M303.2881 241.5015
L303.3848 241.4531
" />
<path d="M303.3848 241.4531
L303.6267 241.4531
" />
<path d="M303.6267 241.4531
L303.7235 241.5015
" />
<path d="M303.7235 241.5015
L303.7719 241.5498
" />
<path d="M303.7719 241.5498
L303.8202 241.6466
" />
<path d="M303.8202 241.6466
L303.8202 241.8885
" />
<path d="M303.8202 241.8885
L303.7719 241.9853
" />
<path d="M303.7719 241.9853
L303.7235 242.0337
" />
<path d="M303.7235 242.0337
L303.6267 242.0820
" />
<path d="M303.6267 242.0820
L303.3848 242.0820
" />
<path d="M303.3848 242.0820
L303.2881 242.0337
" />
<path d="M303.2881 242.0337
L303.2397 241.9853
" />
</g></g>
<g style="fill:none; 
stroke:#D9C8B2; stroke-width:0.1524; stroke-opacity:1; 
stroke-linecap:round; stroke-linejoin:round;">
<path d="M288.2900 232.4100
L283.2100 232.4100
" />
</g>
<g style="fill:none; 
stroke:#B9CCC8; stroke-width:0.1524; stroke-opacity:1; 
stroke-linecap:round; stroke-linejoin:round;">
<text x="289.3060" y="232.9180"
textLength="4.8502" font-size="1.3546" lengthAdjust="spacingAndGlyphs"
text-anchor="start" opacity="0" stroke-opacity="0">QSTRT</text>
<g class="stroked-text"><desc>QSTRT</desc>
<path d="M290.3254 232.9688
L290.2286 232.9204
" />
<path d="M290.2286 232.9204
L290.1319 232.8237
" />
<path d="M290.1319 232.8237
L289.9867 232.6785
" />
<path d="M289.9867 232.6785
L289.8900 232.6301
" />
<path d="M289.8900 232.6301
L289.7932 232.6301
" />
<path d="M289.8416 232.8720
L289.7448 232.8237
" />
<path d="M289.7448 232.8237
L289.6481 232.7269
" />
<path d="M289.6481 232.7269
L289.5997 232.5334
" />
<path d="M289.5997 232.5334
L289.5997 232.1947
" />
<path d="M289.5997 232.1947
L289.6481 232.0012
" />
<path d="M289.6481 232.0012
L289.7448 231.9044
" />
<path d="M289.7448 231.9044
L289.8416 231.8560
" />
<path d="M289.8416 231.8560
L290.0351 231.8560
" />
<path d="M290.0351 231.8560
L290.1319 231.9044
" />
<path d="M290.1319 231.9044
L290.2286 232.0012
" />
<path d="M290.2286 232.0012
L290.2770 232.1947
" />
<path d="M290.2770 232.1947
L290.2770 232.5334
" />
<path d="M290.2770 232.5334
L290.2286 232.7269
" />
<path d="M290.2286 232.7269
L290.1319 232.8237
" />
<path d="M290.1319 232.8237
L290.0351 232.8720
" />
<path d="M290.0351 232.8720
L289.8416 232.8720
" />
<path d="M290.6641 232.8237
L290.8092 232.8720
" />
<path d="M290.8092 232.8720
L291.0511 232.8720
" />
<path d="M291.0511 232.8720
L291.1479 232.8237
" />
<path d="M291.1479 232.8237
L291.1963 232.7753
" />
<path d="M291.1963 232.7753
L291.2446 232.6785
" />
<path d="M291.2446 232.6785
L291.2446 232.5817
" />
<path d="M291.2446 232.5817
L291.1963 232.4850
" />
<path d="M291.1963 232.4850
L291.1479 232.4366
" />
<path d="M291.1479 232.4366
L291.0511 232.3882
" />
<path d="M291.0511 232.3882
L290.8576 232.3398
" />
<path d="M290.8576 232.3398
L290.7608 232.2915
" />
<path d="M290.7608 232.2915
L290.7125 232.2431
" />
<path d="M290.7125 232.2431
L290.6641 232.1463
" />
<path d="M290.6641 232.1463
L290.6641 232.0496
" />
<path d="M290.6641 232.0496
L290.7125 231.9528
" />
<path d="M290.7125 231.9528
L290.7608 231.9044
" />
<path d="M290.7608 231.9044
L290.8576 231.8560
" />
<path d="M290.8576 231.8560
L291.0995 231.8560
" />
<path d="M291.0995 231.8560
L291.2446 231.9044
" />
<path d="M291.5349 231.8560
L292.1155 231.8560
" />
<path d="M291.8252 232.8720
L291.8252 231.8560
" />
<path d="M293.0347 232.8720
L292.6961 232.3882
" />
<path d="M292.4542 232.8720
L292.4542 231.8560
" />
<path d="M292.4542 231.8560
L292.8412 231.8560
" />
<path d="M292.8412 231.8560
L292.9380 231.9044
" />
<path d="M292.9380 231.9044
L292.9863 231.9528
" />
<path d="M292.9863 231.9528
L293.0347 232.0496
" />
<path d="M293.0347 232.0496
L293.0347 232.1947
" />
<path d="M293.0347 232.1947
L292.9863 232.2915
" />
<path d="M292.9863 232.2915
L292.9380 232.3398
" />
<path d="M292.9380 232.3398
L292.8412 232.3882
" />
<path d="M292.8412 232.3882
L292.4542 232.3882
" />
<path d="M293.3250 231.8560
L293.9056 231.8560
" />
<path d="M293.6153 232.8720
L293.6153 231.8560
" />
</g></g>
<g style="fill:none; 
stroke:#BE9F88; stroke-width:0.1524; stroke-opacity:1; 
stroke-linecap:round; stroke-linejoin:round;">
<text x="285.7500" y="232.0544"
textLength="1.2216" font-size="1.3546" lengthAdjust="spacingAndGlyphs"
text-anchor="middle" opacity="0" stroke-opacity="0">6</text>
<g class="stroked-text"><desc>6</desc>
<path d="M285.9435 230.9060
L285.7500 230.9060
" />
<path d="M285.7500 230.9060
L285.6532 230.9544
" />
<path d="M285.6532 230.9544
L285.6048 231.0028
" />
<path d="M285.6048 231.0028
L285.5081 231.1479
" />
<path d="M285.5081 231.1479
L285.4597 231.3415
" />
<path d="M285.4597 231.3415
L285.4597 231.7285
" />
<path d="M285.4597 231.7285
L285.5081 231.8253
" />
<path d="M285.5081 231.8253
L285.5564 231.8737
" />
<path d="M285.5564 231.8737
L285.6532 231.9220
" />
<path d="M285.6532 231.9220
L285.8467 231.9220
" />
<path d="M285.8467 231.9220
L285.9435 231.8737
" />
<path d="M285.9435 231.8737
L285.9919 231.8253
" />
<path d="M285.9919 231.8253
L286.0402 231.7285
" />
<path d="M286.0402 231.7285
L286.0402 231.4866
" />
<path d="M286.0402 231.4866
L285.9919 231.3898
" />
<path d="M285.9919 231.3898
L285.9435 231.3415
" />
<path d="M285.9435 231.3415
L285.8467 231.2931
" />
<path d="M285.8467 231.2931
L285.6532 231.2931
" />
<path d="M285.6532 231.2931
L285.5564 231.3415
" />
<path d="M285.5564 231.3415
L285.5081 231.3898
" />
<path d="M285.5081 231.3898
L285.4597 231.4866
" />
</g></g>
<g style="fill:none; 
stroke:#D9C8B2; stroke-width:0.1524; stroke-opacity:1; 
stroke-linecap:round; stroke-linejoin:round;">
<path d="M288.2900 234.9500
L283.2100 234.9500
" />
</g>
<g style="fill:none; 
stroke:#B9CCC8; stroke-width:0.1524; stroke-opacity:1; 
stroke-linecap:round; stroke-linejoin:round;">
<text x="289.3060" y="235.4580"
textLength="3.0601" font-size="1.3546" lengthAdjust="spacingAndGlyphs"
text-anchor="start" opacity="0" stroke-opacity="0">SCL</text>
<g class="stroked-text"><desc>SCL</desc>
<path d="M289.5997 235.3637
L289.7448 235.4120
" />
<path d="M289.7448 235.4120
L289.9867 235.4120
" />
<path d="M289.9867 235.4120
L290.0835 235.3637
" />
<path d="M290.0835 235.3637
L290.1319 235.3153
" />
<path d="M290.1319 235.3153
L290.1802 235.2185
" />
<path d="M290.1802 235.2185
L290.1802 235.1217
" />
<path d="M290.1802 235.1217
L290.1319 235.0250
" />
<path d="M290.1319 235.0250
L290.0835 234.9766
" />
<path d="M290.0835 234.9766
L289.9867 234.9282
" />
<path d="M289.9867 234.9282
L289.7932 234.8798
" />
<path d="M289.7932 234.8798
L289.6964 234.8315
" />
<path d="M289.6964 234.8315
L289.6481 234.7831
" />
<path d="M289.6481 234.7831
L289.5997 234.6863
" />
<path d="M289.5997 234.6863
L289.5997 234.5896
" />
<path d="M289.5997 234.5896
L289.6481 234.4928
" />
<path d="M289.6481 234.4928
L289.6964 234.4444
" />
<path d="M289.6964 234.4444
L289.7932 234.3960
" />
<path d="M289.7932 234.3960
L290.0351 234.3960
" />
<path d="M290.0351 234.3960
L290.1802 234.4444
" />
<path d="M291.1962 235.3153
L291.1478 235.3637
" />
<path d="M291.1478 235.3637
L291.0027 235.4120
" />
<path d="M291.0027 235.4120
L290.9059 235.4120
" />
<path d="M290.9059 235.4120
L290.7608 235.3637
" />
<path d="M290.7608 235.3637
L290.6640 235.2669
" />
<path d="M290.6640 235.2669
L290.6157 235.1701
" />
<path d="M290.6157 235.1701
L290.5673 234.9766
" />
<path d="M290.5673 234.9766
L290.5673 234.8315
" />
<path d="M290.5673 234.8315
L290.6157 234.6379
" />
<path d="M290.6157 234.6379
L290.6640 234.5412
" />
<path d="M290.6640 234.5412
L290.7608 234.4444
" />
<path d="M290.7608 234.4444
L290.9059 234.3960
" />
<path d="M290.9059 234.3960
L291.0027 234.3960
" />
<path d="M291.0027 234.3960
L291.1478 234.4444
" />
<path d="M291.1478 234.4444
L291.1962 234.4928
" />
<path d="M292.1155 235.4120
L291.6317 235.4120
" />
<path d="M291.6317 235.4120
L291.6317 234.3960
" />
</g></g>
<g style="fill:none; 
stroke:#BE9F88; stroke-width:0.1524; stroke-opacity:1; 
stroke-linecap:round; stroke-linejoin:round;">
<text x="285.7500" y="234.5944"
textLength="1.2216" font-size="1.3546" lengthAdjust="spacingAndGlyphs"
text-anchor="middle" opacity="0" stroke-opacity="0">7</text>
<g class="stroked-text"><desc>7</desc>
<path d="M285.4113 233.4460
L286.0886 233.4460
" />
<path d="M286.0886 233.4460
L285.6532 234.4620
" />
</g></g>
<g style="fill:none; 
stroke:#D9C8B2; stroke-width:0.1524; stroke-opacity:1; 
stroke-linecap:round; stroke-linejoin:round;">
<path d="M288.2900 237.4900
L283.2100 237.4900
" />
</g>
<g style="fill:none; 
stroke:#B9CCC8; stroke-width:0.1524; stroke-opacity:1; 
stroke-linecap:round; stroke-linejoin:round;">
<text x="289.3060" y="237.9980"
textLength="3.1085" font-size="1.3546" lengthAdjust="spacingAndGlyphs"
text-anchor="start" opacity="0" stroke-opacity="0">SDA</text>
<g class="stroked-text"><desc>SDA</desc>
<path d="M289.5997 237.9037
L289.7448 237.9520
" />
<path d="M289.7448 237.9520
L289.9867 237.9520
" />
<path d="M289.9867 237.9520
L290.0835 237.9037
" />
<path d="M290.0835 237.9037
L290.1319 237.8553
" />
<path d="M290.1319 237.8553
L290.1802 237.7585
" />
<path d="M290.1802 237.7585
L290.1802 237.6617
" />
<path d="M290.1802 237.6617
L290.1319 237.5650
" />
<path d="M290.1319 237.5650
L290.0835 237.5166
" />
<path d="M290.0835 237.5166
L289.9867 237.4682
" />
<path d="M289.9867 237.4682
L289.7932 237.4198
" />
<path d="M289.7932 237.4198
L289.6964 237.3715
" />
<path d="M289.6964 237.3715
L289.6481 237.3231
" />
<path d="M289.6481 237.3231
L289.5997 237.2263
" />
<path d="M289.5997 237.2263
L289.5997 237.1296
" />
<path d="M289.5997 237.1296
L289.6481 237.0328
" />
<path d="M289.6481 237.0328
L289.6964 236.9844
" />
<path d="M289.6964 236.9844
L289.7932 236.9360
" />
<path d="M289.7932 236.9360
L290.0351 236.9360
" />
<path d="M290.0351 236.9360
L290.1802 236.9844
" />
<path d="M290.6157 237.9520
L290.6157 236.9360
" />
<path d="M290.6157 236.9360
L290.8576 236.9360
" />
<path d="M290.8576 236.9360
L291.0027 236.9844
" />
<path d="M291.0027 236.9844
L291.0995 237.0812
" />
<path d="M291.0995 237.0812
L291.1478 237.1779
" />
<path d="M291.1478 237.1779
L291.1962 237.3715
" />
<path d="M291.1962 237.3715
L291.1962 237.5166
" />
<path d="M291.1962 237.5166
L291.1478 237.7101
" />
<path d="M291.1478 237.7101
L291.0995 237.8069
" />
<path d="M291.0995 237.8069
L291.0027 237.9037
" />
<path d="M291.0027 237.9037
L290.8576 237.9520
" />
<path d="M290.8576 237.9520
L290.6157 237.9520
" />
<path d="M291.5833 237.6617
L292.0671 237.6617
" />
<path d="M291.4865 237.9520
L291.8252 236.9360
" />
<path d="M291.8252 236.9360
L292.1638 237.9520
" />
</g></g>
<g style="fill:none; 
stroke:#BE9F88; stroke-width:0.1524; stroke-opacity:1; 
stroke-linecap:round; stroke-linejoin:round;">
<text x="285.7500" y="237.1344"
textLength="1.2216" font-size="1.3546" lengthAdjust="spacingAndGlyphs"
text-anchor="middle" opacity="0" stroke-opacity="0">8</text>
<g class="stroked-text"><desc>8</desc>
<path d="M285.6532 236.4215
L285.5564 236.3731
" />
<path d="M285.5564 236.3731
L285.5081 236.3247
" />
<path d="M285.5081 236.3247
L285.4597 236.2279
" />
<path d="M285.4597 236.2279
L285.4597 236.1796
" />
<path d="M285.4597 236.1796
L285.5081 236.0828
" />
<path d="M285.5081 236.0828
L285.5564 236.0344
" />
<path d="M285.5564 236.0344
L285.6532 235.9860
" />
<path d="M285.6532 235.9860
L285.8467 235.9860
" />
<path d="M285.8467 235.9860
L285.9435 236.0344
" />
<path d="M285.9435 236.0344
L285.9919 236.0828
" />
<path d="M285.9919 236.0828
L286.0402 236.1796
" />
<path d="M286.0402 236.1796
L286.0402 236.2279
" />
<path d="M286.0402 236.2279
L285.9919 236.3247
" />
<path d="M285.9919 236.3247
L285.9435 236.3731
" />
<path d="M285.9435 236.3731
L285.8467 236.4215
" />
<path d="M285.8467 236.4215
L285.6532 236.4215
" />
<path d="M285.6532 236.4215
L285.5564 236.4698
" />
<path d="M285.5564 236.4698
L285.5081 236.5182
" />
<path d="M285.5081 236.5182
L285.4597 236.6150
" />
<path d="M285.4597 236.6150
L285.4597 236.8085
" />
<path d="M285.4597 236.8085
L285.5081 236.9053
" />
<path d="M285.5081 236.9053
L285.5564 236.9537
" />
<path d="M285.5564 236.9537
L285.6532 237.0020
" />
<path d="M285.6532 237.0020
L285.8467 237.0020
" />
<path d="M285.8467 237.0020
L285.9435 236.9537
" />
<path d="M285.9435 236.9537
L285.9919 236.9053
" />
<path d="M285.9919 236.9053
L286.0402 236.8085
" />
<path d="M286.0402 236.8085
L286.0402 236.6150
" />
<path d="M286.0402 236.6150
L285.9919 236.5182
" />
<path d="M285.9919 236.5182
L285.9435 236.4698
" />
<path d="M285.9435 236.4698
L285.8467 236.4215
" />
</g></g>
<g style="fill:none; 
stroke:#D9C8B2; stroke-width:0.1524; stroke-opacity:1; 
stroke-linecap:round; stroke-linejoin:round;">
<path d="M300.9900 240.0300
L306.0700 240.0300
" />
</g>
<g style="fill:none; 
stroke:#B9CCC8; stroke-width:0.1524; stroke-opacity:1; 
stroke-linecap:round; stroke-linejoin:round;">
<text x="299.9740" y="240.5380"
textLength="2.1892" font-size="1.3546" lengthAdjust="spacingAndGlyphs"
text-anchor="end" opacity="0" stroke-opacity="0">EP</text>
<g class="stroked-text"><desc>EP</desc>
<path d="M298.1805 239.9598
L298.5191 239.9598
" />
<path d="M298.6643 240.4920
L298.1805 240.4920
" />
<path d="M298.1805 240.4920
L298.1805 239.4760
" />
<path d="M298.1805 239.4760
L298.6643 239.4760
" />
<path d="M299.0997 240.4920
L299.0997 239.4760
" />
<path d="M299.0997 239.4760
L299.4867 239.4760
" />
<path d="M299.4867 239.4760
L299.5835 239.5244
" />
<path d="M299.5835 239.5244
L299.6318 239.5728
" />
<path d="M299.6318 239.5728
L299.6802 239.6696
" />
<path d="M299.6802 239.6696
L299.6802 239.8147
" />
<path d="M299.6802 239.8147
L299.6318 239.9115
" />
<path d="M299.6318 239.9115
L299.5835 239.9598
" />
<path d="M299.5835 239.9598
L299.4867 240.0082
" />
<path d="M299.4867 240.0082
L299.0997 240.0082
" />
</g></g>
<g style="fill:none; 
stroke:#BE9F88; stroke-width:0.1524; stroke-opacity:1; 
stroke-linecap:round; stroke-linejoin:round;">
<text x="303.5300" y="239.6744"
textLength="1.2216" font-size="1.3546" lengthAdjust="spacingAndGlyphs"
text-anchor="middle" opacity="0" stroke-opacity="0">9</text>
<g class="stroked-text"><desc>9</desc>
<path d="M303.3364 239.5420
L303.5300 239.5420
" />
<path d="M303.5300 239.5420
L303.6267 239.4937
" />
<path d="M303.6267 239.4937
L303.6751 239.4453
" />
<path d="M303.6751 239.4453
L303.7719 239.3001
" />
<path d="M303.7719 239.3001
L303.8202 239.1066
" />
<path d="M303.8202 239.1066
L303.8202 238.7196
" />
<path d="M303.8202 238.7196
L303.7719 238.6228
" />
<path d="M303.7719 238.6228
L303.7235 238.5744
" />
<path d="M303.7235 238.5744
L303.6267 238.5260
" />
<path d="M303.6267 238.5260
L303.4332 238.5260
" />
<path d="M303.4332 238.5260
L303.3364 238.5744
" />
<path d="M303.3364 238.5744
L303.2881 238.6228
" />
<path d="M303.2881 238.6228
L303.2397 238.7196
" />
<path d="M303.2397 238.7196
L303.2397 238.9615
" />
<path d="M303.2397 238.9615
L303.2881 239.0582
" />
<path d="M303.2881 239.0582
L303.3364 239.1066
" />
<path d="M303.3364 239.1066
L303.4332 239.1550
" />
<path d="M303.4332 239.1550
L303.6267 239.1550
" />
<path d="M303.6267 239.1550
L303.7235 239.1066
" />
<path d="M303.7235 239.1066
L303.7719 239.0582
" />
<path d="M303.7719 239.0582
L303.8202 238.9615
" />
</g></g>
<g style="fill:none; 
stroke:#B9CCC8; stroke-width:0.1524; stroke-opacity:1; 
stroke-linecap:round; stroke-linejoin:round;">
<text x="294.3860" y="226.4410"
textLength="3.9527" font-size="1.6933" lengthAdjust="spacingAndGlyphs"
text-anchor="middle" opacity="0" stroke-opacity="0">U10</text>
<g class="stroked-text"><desc>U10</desc>
<path d="M292.8136 225.1155
L292.8136 226.1436
" />
<path d="M292.8136 226.1436
L292.8741 226.2646
" />
<path d="M292.8741 226.2646
L292.9346 226.3251
" />
<path d="M292.9346 226.3251
L293.0555 226.3855
" />
<path d="M293.0555 226.3855
L293.2974 226.3855
" />
<path d="M293.2974 226.3855
L293.4184 226.3251
" />
<path d="M293.4184 226.3251
L293.4789 226.2646
" />
<path d="M293.4789 226.2646
L293.5393 226.1436
" />
<path d="M293.5393 226.1436
L293.5393 225.1155
" />
<path d="M294.8094 226.3855
L294.0837 226.3855
" />
<path d="M294.4465 226.3855
L294.4465 225.1155
" />
<path d="M294.4465 225.1155
L294.3256 225.2970
" />
<path d="M294.3256 225.2970
L294.2046 225.4179
" />
<path d="M294.2046 225.4179
L294.0837 225.4784
" />
<path d="M295.5955 225.1155
L295.7165 225.1155
" />
<path d="M295.7165 225.1155
L295.8374 225.1760
" />
<path d="M295.8374 225.1760
L295.8979 225.2365
" />
<path d="M295.8979 225.2365
L295.9584 225.3574
" />
<path d="M295.9584 225.3574
L296.0189 225.5993
" />
<path d="M296.0189 225.5993
L296.0189 225.9017
" />
<path d="M296.0189 225.9017
L295.9584 226.1436
" />
<path d="M295.9584 226.1436
L295.8979 226.2646
" />
<path d="M295.8979 226.2646
L295.8374 226.3251
" />
<path d="M295.8374 226.3251
L295.7165 226.3855
" />
<path d="M295.7165 226.3855
L295.5955 226.3855
" />
<path d="M295.5955 226.3855
L295.4746 226.3251
" />
<path d="M295.4746 226.3251
L295.4141 226.2646
" />
<path d="M295.4141 226.2646
L295.3536 226.1436
" />
<path d="M295.3536 226.1436
L295.2932 225.9017
" />
<path d="M295.2932 225.9017
L295.2932 225.5993
" />
<path d="M295.2932 225.5993
L295.3536 225.3574
" />
<path d="M295.3536 225.3574
L295.4141 225.2365
" />
<path d="M295.4141 225.2365
L295.4746 225.1760
" />
<path d="M295.4746 225.1760
L295.5955 225.1155
" />
</g><text x="294.6400" y="228.9810"
textLength="15.6244" font-size="1.6933" lengthAdjust="spacingAndGlyphs"
text-anchor="middle" opacity="0" stroke-opacity="0">MAX17048G_T10</text>
<g class="stroked-text"><desc>MAX17048G_T10</desc>
<path d="M287.2317 228.9255
L287.2317 227.6555
" />
<path d="M287.2317 227.6555
L287.6551 228.5627
" />
<path d="M287.6551 228.5627
L288.0784 227.6555
" />
<path d="M288.0784 227.6555
L288.0784 228.9255
" />
<path d="M288.6227 228.5627
L289.2274 228.5627
" />
<path d="M288.5017 228.9255
L288.9250 227.6555
" />
<path d="M288.9250 227.6555
L289.3484 228.9255
" />
<path d="M289.6508 227.6555
L290.4974 228.9255
" />
<path d="M290.4974 227.6555
L289.6508 228.9255
" />
<path d="M291.6465 228.9255
L290.9208 228.9255
" />
<path d="M291.2836 228.9255
L291.2836 227.6555
" />
<path d="M291.2836 227.6555
L291.1627 227.8370
" />
<path d="M291.1627 227.8370
L291.0417 227.9579
" />
<path d="M291.0417 227.9579
L290.9208 228.0184
" />
<path d="M292.0698 227.6555
L292.9164 227.6555
" />
<path d="M292.9164 227.6555
L292.3722 228.9255
" />
<path d="M293.6421 227.6555
L293.7631 227.6555
" />
<path d="M293.7631 227.6555
L293.8840 227.7160
" />
<path d="M293.8840 227.7160
L293.9445 227.7765
" />
<path d="M293.9445 227.7765
L294.0050 227.8974
" />
<path d="M294.0050 227.8974
L294.0655 228.1393
" />
<path d="M294.0655 228.1393
L294.0655 228.4417
" />
<path d="M294.0655 228.4417
L294.0050 228.6836
" />
<path d="M294.0050 228.6836
L293.9445 228.8046
" />
<path d="M293.9445 228.8046
L293.8840 228.8651
" />
<path d="M293.8840 228.8651
L293.7631 228.9255
" />
<path d="M293.7631 228.9255
L293.6421 228.9255
" />
<path d="M293.6421 228.9255
L293.5212 228.8651
" />
<path d="M293.5212 228.8651
L293.4607 228.8046
" />
<path d="M293.4607 228.8046
L293.4002 228.6836
" />
<path d="M293.4002 228.6836
L293.3398 228.4417
" />
<path d="M293.3398 228.4417
L293.3398 228.1393
" />
<path d="M293.3398 228.1393
L293.4002 227.8974
" />
<path d="M293.4002 227.8974
L293.4607 227.7765
" />
<path d="M293.4607 227.7765
L293.5212 227.7160
" />
<path d="M293.5212 227.7160
L293.6421 227.6555
" />
<path d="M295.1540 228.0789
L295.1540 228.9255
" />
<path d="M294.8516 227.5951
L294.5493 228.5022
" />
<path d="M294.5493 228.5022
L295.3354 228.5022
" />
<path d="M296.0007 228.1998
L295.8797 228.1393
" />
<path d="M295.8797 228.1393
L295.8192 228.0789
" />
<path d="M295.8192 228.0789
L295.7588 227.9579
" />
<path d="M295.7588 227.9579
L295.7588 227.8974
" />
<path d="M295.7588 227.8974
L295.8192 227.7765
" />
<path d="M295.8192 227.7765
L295.8797 227.7160
" />
<path d="M295.8797 227.7160
L296.0007 227.6555
" />
<path d="M296.0007 227.6555
L296.2426 227.6555
" />
<path d="M296.2426 227.6555
L296.3635 227.7160
" />
<path d="M296.3635 227.7160
L296.4240 227.7765
" />
<path d="M296.4240 227.7765
L296.4845 227.8974
" />
<path d="M296.4845 227.8974
L296.4845 227.9579
" />
<path d="M296.4845 227.9579
L296.4240 228.0789
" />
<path d="M296.4240 228.0789
L296.3635 228.1393
" />
<path d="M296.3635 228.1393
L296.2426 228.1998
" />
<path d="M296.2426 228.1998
L296.0007 228.1998
" />
<path d="M296.0007 228.1998
L295.8797 228.2603
" />
<path d="M295.8797 228.2603
L295.8192 228.3208
" />
<path d="M295.8192 228.3208
L295.7588 228.4417
" />
<path d="M295.7588 228.4417
L295.7588 228.6836
" />
<path d="M295.7588 228.6836
L295.8192 228.8046
" />
<path d="M295.8192 228.8046
L295.8797 228.8651
" />
<path d="M295.8797 228.8651
L296.0007 228.9255
" />
<path d="M296.0007 228.9255
L296.2426 228.9255
" />
<path d="M296.2426 228.9255
L296.3635 228.8651
" />
<path d="M296.3635 228.8651
L296.4240 228.8046
" />
<path d="M296.4240 228.8046
L296.4845 228.6836
" />
<path d="M296.4845 228.6836
L296.4845 228.4417
" />
<path d="M296.4845 228.4417
L296.4240 228.3208
" />
<path d="M296.4240 228.3208
L296.3635 228.2603
" />
<path d="M296.3635 228.2603
L296.2426 228.1998
" />
<path d="M297.6940 227.7160
L297.5730 227.6555
" />
<path d="M297.5730 227.6555
L297.3916 227.6555
" />
<path d="M297.3916 227.6555
L297.2102 227.7160
" />
<path d="M297.2102 227.7160
L297.0892 227.8370
" />
<path d="M297.0892 227.8370
L297.0287 227.9579
" />
<path d="M297.0287 227.9579
L296.9683 228.1998
" />
<path d="M296.9683 228.1998
L296.9683 228.3812
" />
<path d="M296.9683 228.3812
L297.0287 228.6231
" />
<path d="M297.0287 228.6231
L297.0892 228.7441
" />
<path d="M297.0892 228.7441
L297.2102 228.8651
" />
<path d="M297.2102 228.8651
L297.3916 228.9255
" />
<path d="M297.3916 228.9255
L297.5125 228.9255
" />
<path d="M297.5125 228.9255
L297.6940 228.8651
" />
<path d="M297.6940 228.8651
L297.7544 228.8046
" />
<path d="M297.7544 228.8046
L297.7544 228.3812
" />
<path d="M297.7544 228.3812
L297.5125 228.3812
" />
<path d="M297.9964 229.0465
L298.9640 229.0465
" />
<path d="M299.0849 227.6555
L299.8106 227.6555
" />
<path d="M299.4478 228.9255
L299.4478 227.6555
" />
<path d="M300.8992 228.9255
L300.1735 228.9255
" />
<path d="M300.5363 228.9255
L300.5363 227.6555
" />
<path d="M300.5363 227.6555
L300.4154 227.8370
" />
<path d="M300.4154 227.8370
L300.2944 227.9579
" />
<path d="M300.2944 227.9579
L300.1735 228.0184
" />
<path d="M301.6853 227.6555
L301.8063 227.6555
" />
<path d="M301.8063 227.6555
L301.9272 227.7160
" />
<path d="M301.9272 227.7160
L301.9877 227.7765
" />
<path d="M301.9877 227.7765
L302.0482 227.8974
" />
<path d="M302.0482 227.8974
L302.1087 228.1393
" />
<path d="M302.1087 228.1393
L302.1087 228.4417
" />
<path d="M302.1087 228.4417
L302.0482 228.6836
" />
<path d="M302.0482 228.6836
L301.9877 228.8046
" />
<path d="M301.9877 228.8046
L301.9272 228.8651
" />
<path d="M301.9272 228.8651
L301.8063 228.9255
" />
<path d="M301.8063 228.9255
L301.6853 228.9255
" />
<path d="M301.6853 228.9255
L301.5644 228.8651
" />
<path d="M301.5644 228.8651
L301.5039 228.8046
" />
<path d="M301.5039 228.8046
L301.4434 228.6836
" />
<path d="M301.4434 228.6836
L301.3830 228.4417
" />
<path d="M301.3830 228.4417
L301.3830 228.1393
" />
<path d="M301.3830 228.1393
L301.4434 227.8974
" />
<path d="M301.4434 227.8974
L301.5039 227.7765
" />
<path d="M301.5039 227.7765
L301.5644 227.7160
" />
<path d="M301.5644 227.7160
L301.6853 227.6555
" />
</g></g>
<g style="fill:none; 
stroke:#D9C8B2; stroke-width:0.1524; stroke-opacity:1; 
stroke-linecap:round; stroke-linejoin:round;">
<g transform="rotate(-90.000000 320.1308 227.1712)">
<text x="320.1308" y="227.8062"
textLength="4.0737" font-size="1.6933" lengthAdjust="spacingAndGlyphs"
text-anchor="start" opacity="0" stroke-opacity="0">GND</text>
</g>
<g class="stroked-text"><desc>GND</desc>
<path d="M319.5008 226.1033
L319.4403 226.2243
" />
<path d="M319.4403 226.2243
L319.4403 226.4057
" />
<path d="M319.4403 226.4057
L319.5008 226.5871
" />
<path d="M319.5008 226.5871
L319.6218 226.7081
" />
<path d="M319.6218 226.7081
L319.7427 226.7686
" />
<path d="M319.7427 226.7686
L319.9846 226.8290
" />
<path d="M319.9846 226.8290
L320.1660 226.8290
" />
<path d="M320.1660 226.8290
L320.4079 226.7686
" />
<path d="M320.4079 226.7686
L320.5289 226.7081
" />
<path d="M320.5289 226.7081
L320.6499 226.5871
" />
<path d="M320.6499 226.5871
L320.7103 226.4057
" />
<path d="M320.7103 226.4057
L320.7103 226.2848
" />
<path d="M320.7103 226.2848
L320.6499 226.1033
" />
<path d="M320.6499 226.1033
L320.5894 226.0429
" />
<path d="M320.5894 226.0429
L320.1660 226.0429
" />
<path d="M320.1660 226.0429
L320.1660 226.2848
" />
<path d="M320.7103 225.4986
L319.4403 225.4986
" />
<path d="M319.4403 225.4986
L320.7103 224.7729
" />
<path d="M320.7103 224.7729
L319.4403 224.7729
" />
<path d="M320.7103 224.1681
L319.4403 224.1681
" />
<path d="M319.4403 224.1681
L319.4403 223.8657
" />
<path d="M319.4403 223.8657
L319.5008 223.6843
" />
<path d="M319.5008 223.6843
L319.6218 223.5633
" />
<path d="M319.6218 223.5633
L319.7427 223.5028
" />
<path d="M319.7427 223.5028
L319.9846 223.4424
" />
<path d="M319.9846 223.4424
L320.1660 223.4424
" />
<path d="M320.1660 223.4424
L320.4079 223.5028
" />
<path d="M320.4079 223.5028
L320.5289 223.5633
" />
<path d="M320.5289 223.5633
L320.6499 223.6843
" />
<path d="M320.6499 223.6843
L320.7103 223.8657
" />
<path d="M320.7103 223.8657
L320.7103 224.1681
" />
</g><path style="fill:none; 
stroke:#D9C8B2; stroke-width:0.1524; stroke-opacity:1; 
stroke-linecap:round; stroke-linejoin:round;fill:none"
d="M 320.0400,228.6000
321.3104,227.4887
321.3104,222.2841
320.0400,222.2841
318.7696,222.2841
318.7696,227.4887
Z" /> 
</g>
<g style="fill:none; 
stroke:#D9C8B2; stroke-width:0.1524; stroke-opacity:1; 
stroke-linecap:round; stroke-linejoin:round;">
<text x="307.4988" y="235.6758"
textLength="6.0694" font-size="1.6933" lengthAdjust="spacingAndGlyphs"
text-anchor="start" opacity="0" stroke-opacity="0">BATT+</text>
<g class="stroked-text"><desc>BATT+</desc>
<path d="M308.3247 234.9551
L308.5061 235.0156
" />
<path d="M308.5061 235.0156
L308.5666 235.0760
" />
<path d="M308.5666 235.0760
L308.6270 235.1970
" />
<path d="M308.6270 235.1970
L308.6270 235.3784
" />
<path d="M308.6270 235.3784
L308.5666 235.4994
" />
<path d="M308.5666 235.4994
L308.5061 235.5599
" />
<path d="M308.5061 235.5599
L308.3851 235.6203
" />
<path d="M308.3851 235.6203
L307.9013 235.6203
" />
<path d="M307.9013 235.6203
L307.9013 234.3503
" />
<path d="M307.9013 234.3503
L308.3247 234.3503
" />
<path d="M308.3247 234.3503
L308.4456 234.4108
" />
<path d="M308.4456 234.4108
L308.5061 234.4713
" />
<path d="M308.5061 234.4713
L308.5666 234.5922
" />
<path d="M308.5666 234.5922
L308.5666 234.7132
" />
<path d="M308.5666 234.7132
L308.5061 234.8341
" />
<path d="M308.5061 234.8341
L308.4456 234.8946
" />
<path d="M308.4456 234.8946
L308.3247 234.9551
" />
<path d="M308.3247 234.9551
L307.9013 234.9551
" />
<path d="M309.1109 235.2575
L309.7156 235.2575
" />
<path d="M308.9899 235.6203
L309.4132 234.3503
" />
<path d="M309.4132 234.3503
L309.8366 235.6203
" />
<path d="M310.0785 234.3503
L310.8042 234.3503
" />
<path d="M310.4414 235.6203
L310.4414 234.3503
" />
<path d="M311.0461 234.3503
L311.7718 234.3503
" />
<path d="M311.4090 235.6203
L311.4090 234.3503
" />
<path d="M312.1951 235.1365
L313.1628 235.1365
" />
<path d="M312.6789 235.6203
L312.6789 234.6527
" />
</g><path style="fill:none; 
stroke:#D9C8B2; stroke-width:0.1524; stroke-opacity:1; 
stroke-linecap:round; stroke-linejoin:round;fill:none"
d="M 306.0700,234.9500
307.1813,236.2204
314.3816,236.2204
314.3816,234.9500
314.3816,233.6796
307.1813,233.6796
Z" /> 
</g>
<g style="fill:none; 
stroke:#D9C8B2; stroke-width:0.1524; stroke-opacity:1; 
stroke-linecap:round; stroke-linejoin:round;">
<text x="281.7812" y="238.2158"
textLength="3.3480" font-size="1.6933" lengthAdjust="spacingAndGlyphs"
text-anchor="end" opacity="0" stroke-opacity="0">IO4</text>
<g class="stroked-text"><desc>IO4</desc>
<path d="M278.8385 238.1603
L278.8385 236.8903
" />
<path d="M279.6852 236.8903
L279.9271 236.8903
" />
<path d="M279.9271 236.8903
L280.0481 236.9508
" />
<path d="M280.0481 236.9508
L280.1690 237.0718
" />
<path d="M280.1690 237.0718
L280.2295 237.3137
" />
<path d="M280.2295 237.3137
L280.2295 237.7370
" />
<path d="M280.2295 237.7370
L280.1690 237.9789
" />
<path d="M280.1690 237.9789
L280.0481 238.0999
" />
<path d="M280.0481 238.0999
L279.9271 238.1603
" />
<path d="M279.9271 238.1603
L279.6852 238.1603
" />
<path d="M279.6852 238.1603
L279.5643 238.0999
" />
<path d="M279.5643 238.0999
L279.4433 237.9789
" />
<path d="M279.4433 237.9789
L279.3829 237.7370
" />
<path d="M279.3829 237.7370
L279.3829 237.3137
" />
<path d="M279.3829 237.3137
L279.4433 237.0718
" />
<path d="M279.4433 237.0718
L279.5643 236.9508
" />
<path d="M279.5643 236.9508
L279.6852 236.8903
" />
<path d="M281.3181 237.3137
L281.3181 238.1603
" />
<path d="M281.0157 236.8299
L280.7134 237.7370
" />
<path d="M280.7134 237.7370
L281.4995 237.7370
" />
</g><path style="fill:none; 
stroke:#D9C8B2; stroke-width:0.1524; stroke-opacity:1; 
stroke-linecap:round; stroke-linejoin:round;fill:none"
d="M 283.2100,237.4900
282.0987,236.2196
277.6198,236.2196
277.6198,237.4900
277.6198,238.7604
282.0987,238.7604
Z" /> 
</g>
<g style="fill:none; 
stroke:#D9C8B2; stroke-width:0.1524; stroke-opacity:1; 
stroke-linecap:round; stroke-linejoin:round;">
<text x="281.7812" y="233.1358"
textLength="4.0737" font-size="1.6933" lengthAdjust="spacingAndGlyphs"
text-anchor="end" opacity="0" stroke-opacity="0">GND</text>
<g class="stroked-text"><desc>GND</desc>
<path d="M278.7781 231.8708
L278.6571 231.8103
" />
<path d="M278.6571 231.8103
L278.4757 231.8103
" />
<path d="M278.4757 231.8103
L278.2943 231.8708
" />
<path d="M278.2943 231.8708
L278.1733 231.9918
" />
<path d="M278.1733 231.9918
L278.1128 232.1127
" />
<path d="M278.1128 232.1127
L278.0524 232.3546
" />
<path d="M278.0524 232.3546
L278.0524 232.5360
" />
<path d="M278.0524 232.5360
L278.1128 232.7779
" />
<path d="M278.1128 232.7779
L278.1733 232.8989
" />
<path d="M278.1733 232.8989
L278.2943 233.0199
" />
<path d="M278.2943 233.0199
L278.4757 233.0803
" />
<path d="M278.4757 233.0803
L278.5966 233.0803
" />
<path d="M278.5966 233.0803
L278.7781 233.0199
" />
<path d="M278.7781 233.0199
L278.8385 232.9594
" />
<path d="M278.8385 232.9594
L278.8385 232.5360
" />
<path d="M278.8385 232.5360
L278.5966 232.5360
" />
<path d="M279.3828 233.0803
L279.3828 231.8103
" />
<path d="M279.3828 231.8103
L280.1085 233.0803
" />
<path d="M280.1085 233.0803
L280.1085 231.8103
" />
<path d="M280.7133 233.0803
L280.7133 231.8103
" />
<path d="M280.7133 231.8103
L281.0157 231.8103
" />
<path d="M281.0157 231.8103
L281.1971 231.8708
" />
<path d="M281.1971 231.8708
L281.3181 231.9918
" />
<path d="M281.3181 231.9918
L281.3786 232.1127
" />
<path d="M281.3786 232.1127
L281.4390 232.3546
" />
<path d="M281.4390 232.3546
L281.4390 232.5360
" />
<path d="M281.4390 232.5360
L281.3786 232.7779
" />
<path d="M281.3786 232.7779
L281.3181 232.8989
" />
<path d="M281.3181 232.8989
L281.1971 233.0199
" />
<path d="M281.1971 233.0199
L281.0157 233.0803
" />
<path d="M281.0157 233.0803
L280.7133 233.0803
" />
</g><path style="fill:none; 
stroke:#D9C8B2; stroke-width:0.1524; stroke-opacity:1; 
stroke-linecap:round; stroke-linejoin:round;fill:none"
d="M 283.2100,232.4100
282.0987,231.1396
276.8941,231.1396
276.8941,232.4100
276.8941,233.6804
282.0987,233.6804
Z" /> 
</g>
<g style="fill:none; 
stroke:#D9C8B2; stroke-width:0.1524; stroke-opacity:1; 
stroke-linecap:round; stroke-linejoin:round;">
<text x="281.7812" y="240.7558"
textLength="4.0737" font-size="1.6933" lengthAdjust="spacingAndGlyphs"
text-anchor="end" opacity="0" stroke-opacity="0">GND</text>
<g class="stroked-text"><desc>GND</desc>
<path d="M278.7781 239.4908
L278.6571 239.4303
" />
<path d="M278.6571 239.4303
L278.4757 239.4303
" />
<path d="M278.4757 239.4303
L278.2943 239.4908
" />
<path d="M278.2943 239.4908
L278.1733 239.6118
" />
<path d="M278.1733 239.6118
L278.1128 239.7327
" />
<path d="M278.1128 239.7327
L278.0524 239.9746
" />
<path d="M278.0524 239.9746
L278.0524 240.1560
" />
<path d="M278.0524 240.1560
L278.1128 240.3979
" />
<path d="M278.1128 240.3979
L278.1733 240.5189
" />
<path d="M278.1733 240.5189
L278.2943 240.6399
" />
<path d="M278.2943 240.6399
L278.4757 240.7003
" />
<path d="M278.4757 240.7003
L278.5966 240.7003
" />
<path d="M278.5966 240.7003
L278.7781 240.6399
" />
<path d="M278.7781 240.6399
L278.8385 240.5794
" />
<path d="M278.8385 240.5794
L278.8385 240.1560
" />
<path d="M278.8385 240.1560
L278.5966 240.1560
" />
<path d="M279.3828 240.7003
L279.3828 239.4303
" />
<path d="M279.3828 239.4303
L280.1085 240.7003
" />
<path d="M280.1085 240.7003
L280.1085 239.4303
" />
<path d="M280.7133 240.7003
L280.7133 239.4303
" />
<path d="M280.7133 239.4303
L281.0157 239.4303
" />
<path d="M281.0157 239.4303
L281.1971 239.4908
" />
<path d="M281.1971 239.4908
L281.3181 239.6118
" />
<path d="M281.3181 239.6118
L281.3786 239.7327
" />
<path d="M281.3786 239.7327
L281.4390 239.9746
" />
<path d="M281.4390 239.9746
L281.4390 240.1560
" />
<path d="M281.4390 240.1560
L281.3786 240.3979
" />
<path d="M281.3786 240.3979
L281.3181 240.5189
" />
<path d="M281.3181 240.5189
L281.1971 240.6399
" />
<path d="M281.1971 240.6399
L281.0157 240.7003
" />
<path d="M281.0157 240.7003
L280.7133 240.7003
" />
</g><path style="fill:none; 
stroke:#D9C8B2; stroke-width:0.1524; stroke-opacity:1; 
stroke-linecap:round; stroke-linejoin:round;fill:none"
d="M 283.2100,240.0300
282.0987,238.7596
276.8941,238.7596
276.8941,240.0300
276.8941,241.3004
282.0987,241.3004
Z" /> 
</g>
<g style="fill:none; 
stroke:#D9C8B2; stroke-width:0.1524; stroke-opacity:1; 
stroke-linecap:round; stroke-linejoin:round;">
<text x="281.7812" y="235.6758"
textLength="3.3480" font-size="1.6933" lengthAdjust="spacingAndGlyphs"
text-anchor="end" opacity="0" stroke-opacity="0">IO5</text>
<g class="stroked-text"><desc>IO5</desc>
<path d="M278.8385 235.6203
L278.8385 234.3503
" />
<path d="M279.6852 234.3503
L279.9271 234.3503
" />
<path d="M279.9271 234.3503
L280.0481 234.4108
" />
<path d="M280.0481 234.4108
L280.1690 234.5318
" />
<path d="M280.1690 234.5318
L280.2295 234.7737
" />
<path d="M280.2295 234.7737
L280.2295 235.1970
" />
<path d="M280.2295 235.1970
L280.1690 235.4389
" />
<path d="M280.1690 235.4389
L280.0481 235.5599
" />
<path d="M280.0481 235.5599
L279.9271 235.6203
" />
<path d="M279.9271 235.6203
L279.6852 235.6203
" />
<path d="M279.6852 235.6203
L279.5643 235.5599
" />
<path d="M279.5643 235.5599
L279.4433 235.4389
" />
<path d="M279.4433 235.4389
L279.3829 235.1970
" />
<path d="M279.3829 235.1970
L279.3829 234.7737
" />
<path d="M279.3829 234.7737
L279.4433 234.5318
" />
<path d="M279.4433 234.5318
L279.5643 234.4108
" />
<path d="M279.5643 234.4108
L279.6852 234.3503
" />
<path d="M281.3786 234.3503
L280.7738 234.3503
" />
<path d="M280.7738 234.3503
L280.7134 234.9551
" />
<path d="M280.7134 234.9551
L280.7738 234.8946
" />
<path d="M280.7738 234.8946
L280.8948 234.8341
" />
<path d="M280.8948 234.8341
L281.1972 234.8341
" />
<path d="M281.1972 234.8341
L281.3181 234.8946
" />
<path d="M281.3181 234.8946
L281.3786 234.9551
" />
<path d="M281.3786 234.9551
L281.4391 235.0760
" />
<path d="M281.4391 235.0760
L281.4391 235.3784
" />
<path d="M281.4391 235.3784
L281.3786 235.4994
" />
<path d="M281.3786 235.4994
L281.3181 235.5599
" />
<path d="M281.3181 235.5599
L281.1972 235.6203
" />
<path d="M281.1972 235.6203
L280.8948 235.6203
" />
<path d="M280.8948 235.6203
L280.7738 235.5599
" />
<path d="M280.7738 235.5599
L280.7134 235.4994
" />
</g><path style="fill:none; 
stroke:#D9C8B2; stroke-width:0.1524; stroke-opacity:1; 
stroke-linecap:round; stroke-linejoin:round;fill:none"
d="M 283.2100,234.9500
282.0987,233.6796
277.6198,233.6796
277.6198,234.9500
277.6198,236.2204
282.0987,236.2204
Z" /> 
</g>
<g style="fill:none; 
stroke:#D9C8B2; stroke-width:0.1524; stroke-opacity:1; 
stroke-linecap:round; stroke-linejoin:round;">
<text x="307.4988" y="233.1358"
textLength="4.0737" font-size="1.6933" lengthAdjust="spacingAndGlyphs"
text-anchor="start" opacity="0" stroke-opacity="0">GND</text>
<g class="stroked-text"><desc>GND</desc>
<path d="M308.5666 231.8708
L308.4456 231.8103
" />
<path d="M308.4456 231.8103
L308.2642 231.8103
" />
<path d="M308.2642 231.8103
L308.0828 231.8708
" />
<path d="M308.0828 231.8708
L307.9618 231.9918
" />
<path d="M307.9618 231.9918
L307.9013 232.1127
" />
<path d="M307.9013 232.1127
L307.8409 232.3546
" />
<path d="M307.8409 232.3546
L307.8409 232.5360
" />
<path d="M307.8409 232.5360
L307.9013 232.7779
" />
<path d="M307.9013 232.7779
L307.9618 232.8989
" />
<path d="M307.9618 232.8989
L308.0828 233.0199
" />
<path d="M308.0828 233.0199
L308.2642 233.0803
" />
<path d="M308.2642 233.0803
L308.3851 233.0803
" />
<path d="M308.3851 233.0803
L308.5666 233.0199
" />
<path d="M308.5666 233.0199
L308.6270 232.9594
" />
<path d="M308.6270 232.9594
L308.6270 232.5360
" />
<path d="M308.6270 232.5360
L308.3851 232.5360
" />
<path d="M309.1713 233.0803
L309.1713 231.8103
" />
<path d="M309.1713 231.8103
L309.8970 233.0803
" />
<path d="M309.8970 233.0803
L309.8970 231.8103
" />
<path d="M310.5018 233.0803
L310.5018 231.8103
" />
<path d="M310.5018 231.8103
L310.8042 231.8103
" />
<path d="M310.8042 231.8103
L310.9856 231.8708
" />
<path d="M310.9856 231.8708
L311.1066 231.9918
" />
<path d="M311.1066 231.9918
L311.1671 232.1127
" />
<path d="M311.1671 232.1127
L311.2275 232.3546
" />
<path d="M311.2275 232.3546
L311.2275 232.5360
" />
<path d="M311.2275 232.5360
L311.1671 232.7779
" />
<path d="M311.1671 232.7779
L311.1066 232.8989
" />
<path d="M311.1066 232.8989
L310.9856 233.0199
" />
<path d="M310.9856 233.0199
L310.8042 233.0803
" />
<path d="M310.8042 233.0803
L310.5018 233.0803
" />
</g><path style="fill:none; 
stroke:#D9C8B2; stroke-width:0.1524; stroke-opacity:1; 
stroke-linecap:round; stroke-linejoin:round;fill:none"
d="M 306.0700,232.4100
307.1813,233.6804
312.3859,233.6804
312.3859,232.4100
312.3859,231.1396
307.1813,231.1396
Z" /> 
</g>
<g style="fill:none; 
stroke:#D9C8B2; stroke-width:0.1524; stroke-opacity:1; 
stroke-linecap:round; stroke-linejoin:round;">
<text x="307.4988" y="240.7558"
textLength="4.0737" font-size="1.6933" lengthAdjust="spacingAndGlyphs"
text-anchor="start" opacity="0" stroke-opacity="0">GND</text>
<g class="stroked-text"><desc>GND</desc>
<path d="M308.5666 239.4908
L308.4456 239.4303
" />
<path d="M308.4456 239.4303
L308.2642 239.4303
" />
<path d="M308.2642 239.4303
L308.0828 239.4908
" />
<path d="M308.0828 239.4908
L307.9618 239.6118
" />
<path d="M307.9618 239.6118
L307.9013 239.7327
" />
<path d="M307.9013 239.7327
L307.8409 239.9746
" />
<path d="M307.8409 239.9746
L307.8409 240.1560
" />
<path d="M307.8409 240.1560
L307.9013 240.3979
" />
<path d="M307.9013 240.3979
L307.9618 240.5189
" />
<path d="M307.9618 240.5189
L308.0828 240.6399
" />
<path d="M308.0828 240.6399
L308.2642 240.7003
" />
<path d="M308.2642 240.7003
L308.3851 240.7003
" />
<path d="M308.3851 240.7003
L308.5666 240.6399
" />
<path d="M308.5666 240.6399
L308.6270 240.5794
" />
<path d="M308.6270 240.5794
L308.6270 240.1560
" />
<path d="M308.6270 240.1560
L308.3851 240.1560
" />
<path d="M309.1713 240.7003
L309.1713 239.4303
" />
<path d="M309.1713 239.4303
L309.8970 240.7003
" />
<path d="M309.8970 240.7003
L309.8970 239.4303
" />
<path d="M310.5018 240.7003
L310.5018 239.4303
" />
<path d="M310.5018 239.4303
L310.8042 239.4303
" />
<path d="M310.8042 239.4303
L310.9856 239.4908
" />
<path d="M310.9856 239.4908
L311.1066 239.6118
" />
<path d="M311.1066 239.6118
L311.1671 239.7327
" />
<path d="M311.1671 239.7327
L311.2275 239.9746
" />
<path d="M311.2275 239.9746
L311.2275 240.1560
" />
<path d="M311.2275 240.1560
L311.1671 240.3979
" />
<path d="M311.1671 240.3979
L311.1066 240.5189
" />
<path d="M311.1066 240.5189
L310.9856 240.6399
" />
<path d="M310.9856 240.6399
L310.8042 240.7003
" />
<path d="M310.8042 240.7003
L310.5018 240.7003
" />
</g><path style="fill:none; 
stroke:#D9C8B2; stroke-width:0.1524; stroke-opacity:1; 
stroke-linecap:round; stroke-linejoin:round;fill:none"
d="M 306.0700,240.0300
307.1813,241.3004
312.3859,241.3004
312.3859,240.0300
312.3859,238.7596
307.1813,238.7596
Z" /> 
</g>
<g style="fill:none; 
stroke:#D9C8B2; stroke-width:0.1524; stroke-opacity:1; 
stroke-linecap:round; stroke-linejoin:round;">
<text x="318.9288" y="243.2958"
textLength="6.0694" font-size="1.6933" lengthAdjust="spacingAndGlyphs"
text-anchor="start" opacity="0" stroke-opacity="0">BATT+</text>
<g class="stroked-text"><desc>BATT+</desc>
<path d="M319.7547 242.5751
L319.9361 242.6356
" />
<path d="M319.9361 242.6356
L319.9966 242.6960
" />
<path d="M319.9966 242.6960
L320.0570 242.8170
" />
<path d="M320.0570 242.8170
L320.0570 242.9984
" />
<path d="M320.0570 242.9984
L319.9966 243.1194
" />
<path d="M319.9966 243.1194
L319.9361 243.1799
" />
<path d="M319.9361 243.1799
L319.8151 243.2403
" />
<path d="M319.8151 243.2403
L319.3313 243.2403
" />
<path d="M319.3313 243.2403
L319.3313 241.9703
" />
<path d="M319.3313 241.9703
L319.7547 241.9703
" />
<path d="M319.7547 241.9703
L319.8756 242.0308
" />
<path d="M319.8756 242.0308
L319.9361 242.0913
" />
<path d="M319.9361 242.0913
L319.9966 242.2122
" />
<path d="M319.9966 242.2122
L319.9966 242.3332
" />
<path d="M319.9966 242.3332
L319.9361 242.4541
" />
<path d="M319.9361 242.4541
L319.8756 242.5146
" />
<path d="M319.8756 242.5146
L319.7547 242.5751
" />
<path d="M319.7547 242.5751
L319.3313 242.5751
" />
<path d="M320.5409 242.8775
L321.1456 242.8775
" />
<path d="M320.4199 243.2403
L320.8432 241.9703
" />
<path d="M320.8432 241.9703
L321.2666 243.2403
" />
<path d="M321.5085 241.9703
L322.2342 241.9703
" />
<path d="M321.8714 243.2403
L321.8714 241.9703
" />
<path d="M322.4761 241.9703
L323.2018 241.9703
" />
<path d="M322.8390 243.2403
L322.8390 241.9703
" />
<path d="M323.6251 242.7565
L324.5928 242.7565
" />
<path d="M324.1089 243.2403
L324.1089 242.2727
" />
</g><path style="fill:none; 
stroke:#D9C8B2; stroke-width:0.1524; stroke-opacity:1; 
stroke-linecap:round; stroke-linejoin:round;fill:none"
d="M 317.5000,242.5700
318.6113,243.8404
325.8116,243.8404
325.8116,242.5700
325.8116,241.2996
318.6113,241.2996
Z" /> 
</g>
<g style="fill:none; 
stroke:#74A89E; stroke-width:0.1524; stroke-opacity:1; 
stroke-linecap:round; stroke-linejoin:round;">
<path d="M314.9600 237.4900
L314.9600 242.5700
" />
<path d="M314.9600 242.5700
L317.5000 242.5700
" />
<path d="M320.0400 236.2200
L320.0400 237.4900
" />
<path d="M314.9600 237.4900
L320.0400 237.4900
" />
<path d="M306.0700 237.4900
L314.9600 237.4900
" />
</g>
<g style="fill:none; 
stroke:#96AABD; stroke-width:0.1524; stroke-opacity:1; 
stroke-linecap:round; stroke-linejoin:round;">
<path d="M305.4604 241.9604
L306.6796 243.1796
" />
<path d="M306.6796 241.9604
L305.4604 243.1796
" />
</g>
<g style="fill:none; 
stroke:#96AABD; stroke-width:0.1524; stroke-opacity:1; 
stroke-linecap:round; stroke-linejoin:round;">
<text x="291.8460" y="242.9550"
textLength="4.8598" font-size="1.6933" lengthAdjust="spacingAndGlyphs"
text-anchor="middle" opacity="0" stroke-opacity="0">0x36</text>
<g class="stroked-text"><desc>0x36</desc>
<path d="M290.0619 241.6295
L290.1829 241.6295
" />
<path d="M290.1829 241.6295
L290.3038 241.6900
" />
<path d="M290.3038 241.6900
L290.3643 241.7505
" />
<path d="M290.3643 241.7505
L290.4248 241.8714
" />
<path d="M290.4248 241.8714
L290.4853 242.1133
" />
<path d="M290.4853 242.1133
L290.4853 242.4157
" />
<path d="M290.4853 242.4157
L290.4248 242.6576
" />
<path d="M290.4248 242.6576
L290.3643 242.7786
" />
<path d="M290.3643 242.7786
L290.3038 242.8391
" />
<path d="M290.3038 242.8391
L290.1829 242.8995
" />
<path d="M290.1829 242.8995
L290.0619 242.8995
" />
<path d="M290.0619 242.8995
L289.9410 242.8391
" />
<path d="M289.9410 242.8391
L289.8805 242.7786
" />
<path d="M289.8805 242.7786
L289.8200 242.6576
" />
<path d="M289.8200 242.6576
L289.7596 242.4157
" />
<path d="M289.7596 242.4157
L289.7596 242.1133
" />
<path d="M289.7596 242.1133
L289.8200 241.8714
" />
<path d="M289.8200 241.8714
L289.8805 241.7505
" />
<path d="M289.8805 241.7505
L289.9410 241.6900
" />
<path d="M289.9410 241.6900
L290.0619 241.6295
" />
<path d="M290.9086 242.8995
L291.5738 242.0529
" />
<path d="M290.9086 242.0529
L291.5738 242.8995
" />
<path d="M291.9367 241.6295
L292.7229 241.6295
" />
<path d="M292.7229 241.6295
L292.2995 242.1133
" />
<path d="M292.2995 242.1133
L292.4810 242.1133
" />
<path d="M292.4810 242.1133
L292.6019 242.1738
" />
<path d="M292.6019 242.1738
L292.6624 242.2343
" />
<path d="M292.6624 242.2343
L292.7229 242.3552
" />
<path d="M292.7229 242.3552
L292.7229 242.6576
" />
<path d="M292.7229 242.6576
L292.6624 242.7786
" />
<path d="M292.6624 242.7786
L292.6019 242.8391
" />
<path d="M292.6019 242.8391
L292.4810 242.8995
" />
<path d="M292.4810 242.8995
L292.1181 242.8995
" />
<path d="M292.1181 242.8995
L291.9972 242.8391
" />
<path d="M291.9972 242.8391
L291.9367 242.7786
" />
<path d="M293.8114 241.6295
L293.5695 241.6295
" />
<path d="M293.5695 241.6295
L293.4486 241.6900
" />
<path d="M293.4486 241.6900
L293.3881 241.7505
" />
<path d="M293.3881 241.7505
L293.2671 241.9319
" />
<path d="M293.2671 241.9319
L293.2067 242.1738
" />
<path d="M293.2067 242.1738
L293.2067 242.6576
" />
<path d="M293.2067 242.6576
L293.2671 242.7786
" />
<path d="M293.2671 242.7786
L293.3276 242.8391
" />
<path d="M293.3276 242.8391
L293.4486 242.8995
" />
<path d="M293.4486 242.8995
L293.6905 242.8995
" />
<path d="M293.6905 242.8995
L293.8114 242.8391
" />
<path d="M293.8114 242.8391
L293.8719 242.7786
" />
<path d="M293.8719 242.7786
L293.9324 242.6576
" />
<path d="M293.9324 242.6576
L293.9324 242.3552
" />
<path d="M293.9324 242.3552
L293.8719 242.2343
" />
<path d="M293.8719 242.2343
L293.8114 242.1738
" />
<path d="M293.8114 242.1738
L293.6905 242.1133
" />
<path d="M293.6905 242.1133
L293.4486 242.1133
" />
<path d="M293.4486 242.1133
L293.3276 242.1738
" />
<path d="M293.3276 242.1738
L293.2671 242.2343
" />
<path d="M293.2671 242.2343
L293.2067 242.3552
" />
</g></g>
<g style="fill:none; 
stroke:#96AABD; stroke-width:0.3175; stroke-opacity:1; 
stroke-linecap:round; stroke-linejoin:round;">
<text x="308.3560" y="221.6127"
textLength="4.9924" font-size="1.6933" lengthAdjust="spacingAndGlyphs"
text-anchor="middle" opacity="0" stroke-opacity="0">BATT</text>
<g class="stroked-text"><desc>BATT</desc>
<path d="M306.9348 220.8834
L307.1162 220.9439
" />
<path d="M307.1162 220.9439
L307.1767 221.0043
" />
<path d="M307.1767 221.0043
L307.2371 221.1253
" />
<path d="M307.2371 221.1253
L307.2371 221.3067
" />
<path d="M307.2371 221.3067
L307.1767 221.4277
" />
<path d="M307.1767 221.4277
L307.1162 221.4882
" />
<path d="M307.1162 221.4882
L306.9952 221.5486
" />
<path d="M306.9952 221.5486
L306.5114 221.5486
" />
<path d="M306.5114 221.5486
L306.5114 220.2786
" />
<path d="M306.5114 220.2786
L306.9348 220.2786
" />
<path d="M306.9348 220.2786
L307.0557 220.3391
" />
<path d="M307.0557 220.3391
L307.1162 220.3996
" />
<path d="M307.1162 220.3996
L307.1767 220.5205
" />
<path d="M307.1767 220.5205
L307.1767 220.6415
" />
<path d="M307.1767 220.6415
L307.1162 220.7624
" />
<path d="M307.1162 220.7624
L307.0557 220.8229
" />
<path d="M307.0557 220.8229
L306.9348 220.8834
" />
<path d="M306.9348 220.8834
L306.5114 220.8834
" />
<path d="M307.7210 221.1858
L308.3257 221.1858
" />
<path d="M307.6000 221.5486
L308.0233 220.2786
" />
<path d="M308.0233 220.2786
L308.4467 221.5486
" />
<path d="M308.6886 220.2786
L309.4143 220.2786
" />
<path d="M309.0515 221.5486
L309.0515 220.2786
" />
<path d="M309.6562 220.2786
L310.3819 220.2786
" />
<path d="M310.0191 221.5486
L310.0191 220.2786
" />
</g><text x="308.3560" y="223.6573"
textLength="10.6165" font-size="1.6933" lengthAdjust="spacingAndGlyphs"
text-anchor="middle" opacity="0" stroke-opacity="0">Monitoring</text>
<g class="stroked-text"><desc>Monitoring</desc>
<path d="M303.6994 223.5932
L303.6994 222.3232
" />
<path d="M303.6994 222.3232
L304.1228 223.2304
" />
<path d="M304.1228 223.2304
L304.5461 222.3232
" />
<path d="M304.5461 222.3232
L304.5461 223.5932
" />
<path d="M305.3323 223.5932
L305.2113 223.5328
" />
<path d="M305.2113 223.5328
L305.1508 223.4723
" />
<path d="M305.1508 223.4723
L305.0904 223.3513
" />
<path d="M305.0904 223.3513
L305.0904 222.9885
" />
<path d="M305.0904 222.9885
L305.1508 222.8675
" />
<path d="M305.1508 222.8675
L305.2113 222.8070
" />
<path d="M305.2113 222.8070
L305.3323 222.7466
" />
<path d="M305.3323 222.7466
L305.5137 222.7466
" />
<path d="M305.5137 222.7466
L305.6346 222.8070
" />
<path d="M305.6346 222.8070
L305.6951 222.8675
" />
<path d="M305.6951 222.8675
L305.7556 222.9885
" />
<path d="M305.7556 222.9885
L305.7556 223.3513
" />
<path d="M305.7556 223.3513
L305.6951 223.4723
" />
<path d="M305.6951 223.4723
L305.6346 223.5328
" />
<path d="M305.6346 223.5328
L305.5137 223.5932
" />
<path d="M305.5137 223.5932
L305.3323 223.5932
" />
<path d="M306.2998 222.7466
L306.2998 223.5932
" />
<path d="M306.2998 222.8675
L306.3603 222.8070
" />
<path d="M306.3603 222.8070
L306.4813 222.7466
" />
<path d="M306.4813 222.7466
L306.6627 222.7466
" />
<path d="M306.6627 222.7466
L306.7836 222.8070
" />
<path d="M306.7836 222.8070
L306.8441 222.9280
" />
<path d="M306.8441 222.9280
L306.8441 223.5932
" />
<path d="M307.4488 223.5932
L307.4488 222.7466
" />
<path d="M307.4488 222.3232
L307.3884 222.3837
" />
<path d="M307.3884 222.3837
L307.4488 222.4442
" />
<path d="M307.4488 222.4442
L307.5093 222.3837
" />
<path d="M307.5093 222.3837
L307.4488 222.3232
" />
<path d="M307.4488 222.3232
L307.4488 222.4442
" />
<path d="M307.8722 222.7466
L308.3560 222.7466
" />
<path d="M308.0536 222.3232
L308.0536 223.4118
" />
<path d="M308.0536 223.4118
L308.1141 223.5328
" />
<path d="M308.1141 223.5328
L308.2351 223.5932
" />
<path d="M308.2351 223.5932
L308.3560 223.5932
" />
<path d="M308.9608 223.5932
L308.8398 223.5328
" />
<path d="M308.8398 223.5328
L308.7793 223.4723
" />
<path d="M308.7793 223.4723
L308.7189 223.3513
" />
<path d="M308.7189 223.3513
L308.7189 222.9885
" />
<path d="M308.7189 222.9885
L308.7793 222.8675
" />
<path d="M308.7793 222.8675
L308.8398 222.8070
" />
<path d="M308.8398 222.8070
L308.9608 222.7466
" />
<path d="M308.9608 222.7466
L309.1422 222.7466
" />
<path d="M309.1422 222.7466
L309.2631 222.8070
" />
<path d="M309.2631 222.8070
L309.3236 222.8675
" />
<path d="M309.3236 222.8675
L309.3841 222.9885
" />
<path d="M309.3841 222.9885
L309.3841 223.3513
" />
<path d="M309.3841 223.3513
L309.3236 223.4723
" />
<path d="M309.3236 223.4723
L309.2631 223.5328
" />
<path d="M309.2631 223.5328
L309.1422 223.5932
" />
<path d="M309.1422 223.5932
L308.9608 223.5932
" />
<path d="M309.9283 223.5932
L309.9283 222.7466
" />
<path d="M309.9283 222.9885
L309.9888 222.8675
" />
<path d="M309.9888 222.8675
L310.0493 222.8070
" />
<path d="M310.0493 222.8070
L310.1702 222.7466
" />
<path d="M310.1702 222.7466
L310.2912 222.7466
" />
<path d="M310.7145 223.5932
L310.7145 222.7466
" />
<path d="M310.7145 222.3232
L310.6541 222.3837
" />
<path d="M310.6541 222.3837
L310.7145 222.4442
" />
<path d="M310.7145 222.4442
L310.7750 222.3837
" />
<path d="M310.7750 222.3837
L310.7145 222.3232
" />
<path d="M310.7145 222.3232
L310.7145 222.4442
" />
<path d="M311.3193 222.7466
L311.3193 223.5932
" />
<path d="M311.3193 222.8675
L311.3798 222.8070
" />
<path d="M311.3798 222.8070
L311.5008 222.7466
" />
<path d="M311.5008 222.7466
L311.6822 222.7466
" />
<path d="M311.6822 222.7466
L311.8031 222.8070
" />
<path d="M311.8031 222.8070
L311.8636 222.9280
" />
<path d="M311.8636 222.9280
L311.8636 223.5932
" />
<path d="M313.0126 222.7466
L313.0126 223.7747
" />
<path d="M313.0126 223.7747
L312.9521 223.8956
" />
<path d="M312.9521 223.8956
L312.8917 223.9561
" />
<path d="M312.8917 223.9561
L312.7707 224.0166
" />
<path d="M312.7707 224.0166
L312.5893 224.0166
" />
<path d="M312.5893 224.0166
L312.4683 223.9561
" />
<path d="M313.0126 223.5328
L312.8917 223.5932
" />
<path d="M312.8917 223.5932
L312.6498 223.5932
" />
<path d="M312.6498 223.5932
L312.5288 223.5328
" />
<path d="M312.5288 223.5328
L312.4683 223.4723
" />
<path d="M312.4683 223.4723
L312.4079 223.3513
" />
<path d="M312.4079 223.3513
L312.4079 222.9885
" />
<path d="M312.4079 222.9885
L312.4683 222.8675
" />
<path d="M312.4683 222.8675
L312.5288 222.8070
" />
<path d="M312.5288 222.8070
L312.6498 222.7466
" />
<path d="M312.6498 222.7466
L312.8917 222.7466
" />
<path d="M312.8917 222.7466
L313.0126 222.8070
" />
</g></g>
<g style="fill:none; 
stroke:#96AABD; stroke-width:0.1524; stroke-opacity:1; 
stroke-linecap:round; stroke-linejoin:round;">
<rect x="274.574000" y="216.916000" width="54.610000" height="32.258000" rx="0.000000" />
</g>
<g style="fill:#74A89E; fill-opacity:1.0000; stroke:none;">
<circle cx="314.9600" cy="237.4900" r="0.4572" /> 
</g> 
</svg>
